<?xml version="1.0" standalone="no"?>
<!DOCTYPE svg PUBLIC "-//W3C//DTD SVG 20010904//EN"
 "http://www.w3.org/TR/2001/REC-SVG-20010904/DTD/svg10.dtd">
<svg version="1.0" xmlns="http://www.w3.org/2000/svg"
 width="2646.000000pt" height="2646.000000pt" viewBox="0 0 2646.000000 2646.000000"
 preserveAspectRatio="xMidYMid meet">
<metadata>
Created by potrace 1.14, written by Peter Selinger 2001-2017
</metadata>
<g transform="translate(0.000000,2646.000000) scale(0.100000,-0.100000)"
fill="#000000" stroke="none">
<path d="M19927 25624 c-1 -1 -67 -5 -147 -9 -80 -3 -161 -8 -180 -10 -19 -2
-70 -7 -113 -10 -43 -4 -87 -8 -98 -10 -11 -2 -48 -7 -82 -10 -35 -3 -71 -7
-82 -9 -11 -2 -45 -7 -75 -11 -30 -4 -62 -9 -71 -10 -9 -2 -34 -6 -55 -9 -22
-4 -61 -11 -89 -16 -27 -5 -66 -12 -85 -15 -19 -4 -55 -11 -80 -16 -25 -6 -56
-13 -70 -15 -64 -12 -280 -67 -423 -108 -659 -192 -1301 -509 -1857 -919 -252
-186 -465 -370 -700 -606 -248 -248 -426 -455 -627 -723 -118 -157 -357 -512
-418 -620 -5 -9 -41 -68 -80 -130 -38 -61 -72 -117 -74 -122 -2 -6 -8 -15 -13
-21 -12 -13 -432 -708 -484 -800 -18 -33 -206 -342 -334 -550 -178 -290 -313
-499 -524 -813 -105 -156 -195 -291 -201 -300 -5 -10 -12 -19 -15 -22 -3 -3
-35 -45 -70 -95 -36 -49 -68 -94 -73 -100 -4 -5 -33 -44 -64 -85 -72 -96 -151
-198 -179 -230 -12 -14 -59 -68 -104 -120 -298 -345 -624 -626 -1075 -926
-183 -122 -529 -334 -544 -334 -5 0 -13 -6 -19 -13 -6 -6 -40 -28 -76 -47 -37
-19 -74 -39 -84 -45 -84 -48 -227 -128 -272 -152 -490 -264 -896 -479 -1010
-533 l-54 -27 39 -7 c22 -5 63 -10 90 -12 28 -3 64 -6 80 -9 17 -2 62 -6 100
-10 39 -3 95 -8 125 -10 220 -19 817 -26 1030 -12 209 14 343 26 375 32 19 4
100 13 175 20 19 2 49 6 66 9 17 3 46 8 65 10 69 10 116 17 189 31 41 8 90 17
108 20 18 3 64 12 102 20 38 8 83 17 100 20 25 4 244 58 345 85 392 103 924
320 1244 510 29 16 53 30 55 30 2 0 30 16 62 36 33 20 75 46 94 57 269 163
644 448 910 692 102 93 408 402 485 489 39 43 75 84 80 90 6 6 37 43 70 81 33
39 62 72 65 75 23 22 234 291 333 424 186 249 208 281 361 509 137 205 191
291 496 782 218 351 439 704 474 760 30 46 168 265 191 303 6 10 18 28 27 42
9 14 78 122 153 240 130 203 508 772 578 870 137 192 399 515 527 651 183 194
382 385 520 499 41 34 86 72 100 84 93 80 361 268 525 368 226 138 489 268
705 350 58 22 114 44 125 49 114 53 564 172 805 213 142 24 141 24 195 31 71
9 120 16 123 20 1 1 -32 8 -75 15 -43 8 -82 15 -88 16 -5 1 -73 12 -150 24
-206 31 -245 37 -325 45 -30 4 -66 8 -80 10 -14 2 -65 7 -115 10 -49 4 -110 9
-135 11 -156 12 -713 26 -723 18z"/>
<path d="M14938 25535 c-2 -2 -61 -6 -133 -9 -125 -7 -162 -9 -305 -21 -126
-10 -252 -23 -295 -30 -16 -3 -50 -7 -75 -9 -42 -4 -81 -10 -155 -21 -16 -3
-48 -7 -70 -10 -282 -40 -743 -141 -1040 -226 -87 -25 -291 -87 -325 -99 -14
-5 -79 -27 -145 -50 -66 -23 -134 -48 -152 -56 -17 -8 -34 -14 -38 -14 -8 0
-281 -110 -350 -140 -226 -101 -476 -222 -605 -292 -63 -35 -263 -148 -288
-163 -9 -6 -39 -23 -67 -40 -185 -108 -589 -384 -760 -520 -343 -271 -510
-419 -805 -715 -118 -118 -249 -253 -290 -299 -41 -46 -79 -89 -85 -95 -336
-372 -716 -897 -1085 -1501 -8 -13 -67 -109 -130 -212 -63 -103 -120 -197
-126 -208 -6 -11 -69 -117 -141 -235 -71 -118 -196 -327 -277 -465 -82 -137
-159 -266 -171 -285 -25 -39 -79 -128 -105 -175 -35 -60 -359 -593 -423 -695
-36 -58 -87 -140 -114 -183 -26 -43 -59 -96 -73 -118 -14 -21 -43 -67 -65
-101 -103 -164 -478 -732 -603 -913 -271 -392 -553 -759 -784 -1019 -92 -103
-456 -467 -527 -526 -29 -25 -63 -54 -75 -66 -38 -38 -278 -228 -416 -331
-245 -181 -623 -431 -923 -608 -65 -39 -130 -77 -145 -86 -36 -22 -344 -199
-407 -234 -85 -47 -655 -359 -750 -410 -49 -26 -121 -65 -160 -85 -104 -56
-195 -104 -340 -180 -71 -38 -177 -94 -235 -124 -58 -31 -122 -64 -143 -74
-44 -20 -47 -32 -9 -33 15 0 34 -2 42 -4 8 -1 47 -5 85 -9 39 -4 86 -9 105
-11 85 -10 152 -16 216 -20 38 -3 103 -7 144 -11 144 -12 555 -27 745 -27 134
0 531 12 585 18 19 1 85 6 145 10 144 9 244 18 345 30 19 2 60 7 90 10 99 11
125 15 150 19 14 3 50 8 80 11 30 3 62 8 70 10 8 2 38 6 65 10 28 3 73 10 100
15 28 5 66 12 85 15 19 3 82 14 140 25 58 11 116 21 130 24 14 2 61 12 105 21
44 9 91 19 105 21 70 14 438 106 530 134 58 17 112 33 120 35 8 2 89 28 180
58 227 75 495 178 657 253 41 18 77 34 80 34 9 0 417 203 493 245 328 183 590
349 875 558 83 61 152 113 155 116 3 3 23 19 45 36 52 38 311 252 383 318 195
174 256 232 432 407 210 210 344 353 529 565 205 235 474 577 691 877 198 274
209 290 395 570 196 296 175 263 465 733 123 198 258 416 300 485 43 69 160
258 260 420 791 1278 1328 2105 1674 2575 44 61 83 112 86 115 3 3 37 46 75
95 38 50 72 92 75 95 3 3 33 39 67 80 86 107 218 256 347 394 793 850 1666
1434 2671 1791 123 43 343 113 414 131 227 57 382 95 408 99 18 3 52 9 75 14
24 6 59 12 78 16 19 3 46 8 60 10 56 12 125 23 180 30 19 3 44 7 55 9 32 6
159 20 168 18 4 -1 7 2 7 8 0 5 -10 10 -22 11 -13 0 -30 2 -38 4 -43 9 -86 17
-200 35 -69 11 -147 25 -175 30 -27 5 -72 12 -100 15 -27 3 -61 8 -75 10 -63
9 -108 15 -150 20 -25 3 -65 7 -90 10 -52 6 -110 12 -195 20 -33 3 -78 7 -100
9 -22 3 -94 8 -160 12 -66 3 -131 8 -145 11 -29 4 -897 12 -902 8z"/>
<path d="M21829 25182 c-14 -20 -59 -82 -99 -136 -175 -239 -540 -788 -540
-813 0 -3 -13 -25 -30 -50 -16 -24 -30 -46 -30 -49 0 -2 -20 -37 -44 -77 -79
-131 -190 -339 -292 -547 -41 -85 -79 -163 -84 -172 -38 -71 -179 -395 -259
-596 -107 -269 -296 -812 -316 -912 -1 -3 -8 -30 -18 -60 -15 -51 -95 -363
-102 -399 -2 -9 -17 -81 -34 -161 -17 -80 -38 -190 -46 -245 -9 -55 -18 -112
-20 -127 -15 -89 -25 -159 -30 -213 -3 -27 -7 -59 -9 -70 -3 -18 -6 -50 -22
-220 -4 -50 -14 -207 -19 -300 -10 -179 -5 -648 9 -830 3 -44 8 -111 11 -150
2 -38 7 -90 10 -115 3 -25 8 -67 10 -95 3 -27 8 -66 10 -85 3 -19 7 -53 10
-75 2 -22 7 -56 10 -75 3 -19 7 -48 9 -65 4 -26 25 -160 42 -260 2 -16 7 -37
9 -45 2 -8 7 -31 10 -50 5 -28 19 -101 39 -202 2 -7 6 -24 9 -38 3 -14 20 -86
37 -160 80 -344 198 -738 337 -1125 67 -187 180 -479 214 -552 10 -24 19 -45
19 -48 0 -2 11 -28 24 -57 13 -29 42 -96 64 -148 42 -99 211 -470 242 -530 9
-19 72 -144 138 -277 66 -132 142 -281 167 -330 106 -198 139 -259 155 -288
10 -16 46 -84 80 -150 35 -66 66 -124 70 -130 4 -5 38 -68 75 -140 37 -71 71
-134 75 -140 4 -5 65 -118 135 -250 70 -132 140 -262 155 -290 15 -27 49 -90
75 -140 26 -49 63 -117 80 -150 18 -33 56 -105 85 -160 29 -55 69 -131 90
-170 203 -378 672 -1300 835 -1640 79 -165 175 -380 217 -485 16 -41 36 -88
43 -105 71 -155 291 -803 330 -974 2 -9 22 -86 44 -171 35 -138 64 -268 77
-340 3 -14 13 -70 23 -125 17 -86 32 -180 46 -275 2 -14 7 -52 11 -85 3 -33 8
-67 9 -75 2 -8 6 -51 10 -95 4 -44 9 -91 10 -105 12 -103 19 -308 20 -550 0
-322 -11 -527 -40 -755 -10 -74 -37 -258 -41 -278 -2 -12 -7 -38 -10 -57 -30
-200 -116 -552 -199 -815 -25 -77 -45 -144 -46 -150 0 -5 -4 -14 -9 -20 -4 -5
-13 -28 -19 -50 -7 -22 -16 -49 -21 -60 -4 -11 -13 -36 -20 -55 -7 -19 -16
-44 -21 -55 -16 -37 -81 -200 -100 -250 l-19 -50 26 30 c78 88 241 284 332
400 34 44 68 87 75 95 7 8 43 58 82 110 38 52 74 100 78 105 82 100 363 524
497 750 45 77 93 157 106 177 13 21 24 40 24 42 0 3 13 27 28 53 166 281 402
784 560 1193 91 238 247 718 277 858 2 9 13 53 25 97 22 85 67 280 76 329 3
16 6 32 8 35 2 3 7 28 10 55 4 27 9 52 11 56 2 3 6 26 10 50 3 25 8 53 11 62
7 23 10 44 19 108 4 30 9 64 11 75 2 11 6 40 10 65 3 25 9 70 14 100 5 30 12
84 15 120 3 36 8 76 10 90 2 14 7 62 10 107 3 45 8 90 9 100 19 98 28 872 12
1093 -15 225 -27 359 -41 470 -3 19 -7 53 -10 75 -2 22 -7 56 -10 75 -2 19 -7
53 -10 75 -3 23 -7 52 -10 65 -3 14 -7 45 -10 69 -3 24 -7 46 -9 50 -2 3 -7
29 -11 56 -11 83 -64 341 -101 495 -20 80 -37 154 -39 164 -5 22 -46 170 -76
271 -76 260 -263 788 -329 930 -5 11 -44 99 -86 195 -75 173 -254 540 -349
715 -50 93 -211 391 -273 505 -20 36 -123 223 -230 415 -107 193 -210 379
-229 415 -19 36 -38 70 -43 75 -4 6 -22 37 -40 70 -18 33 -43 79 -56 103 -13
23 -35 62 -49 87 -14 25 -37 66 -51 93 -15 26 -40 72 -57 102 -16 30 -53 98
-82 150 -29 52 -67 121 -84 153 -17 31 -44 82 -61 112 -63 115 -88 162 -130
240 -23 44 -55 103 -70 130 -97 177 -481 939 -595 1180 -283 597 -456 1031
-581 1453 -30 101 -56 193 -58 205 -2 12 -14 60 -26 106 -20 80 -65 290 -76
360 -3 18 -7 43 -10 54 -2 12 -6 37 -9 57 -3 20 -7 45 -9 56 -2 11 -8 47 -12
79 -4 33 -9 62 -9 65 -1 3 -5 37 -9 75 -5 39 -10 77 -11 86 -2 8 -6 53 -10
100 -4 46 -9 92 -11 102 -1 10 -6 66 -9 125 -3 59 -8 125 -10 146 -27 256 -27
1614 0 2196 2 47 6 168 10 270 3 102 8 214 10 250 2 36 6 148 10 249 3 102 8
188 11 193 3 4 2 8 -3 8 -4 -1 -20 -17 -34 -38z"/>
<path d="M20185 16048 c-166 -230 -336 -487 -443 -667 -200 -339 -396 -737
-521 -1061 -29 -74 -56 -144 -61 -155 -26 -55 -187 -547 -205 -625 -2 -8 -11
-44 -20 -80 -46 -180 -105 -481 -120 -605 -3 -22 -7 -51 -10 -65 -3 -14 -7
-59 -11 -100 -3 -41 -7 -80 -9 -87 -27 -84 -27 -805 -1 -1058 2 -22 7 -74 11
-115 4 -41 8 -82 10 -90 1 -8 6 -40 10 -70 4 -30 9 -64 11 -75 3 -11 6 -35 9
-52 4 -30 12 -79 22 -128 2 -11 6 -36 9 -55 11 -65 86 -394 110 -485 14 -49
32 -115 40 -145 27 -100 106 -342 164 -505 177 -492 416 -1018 722 -1590 138
-258 154 -288 195 -365 36 -67 127 -237 246 -460 278 -521 424 -802 660 -1275
226 -452 266 -534 267 -540 0 -3 12 -31 26 -62 14 -32 41 -96 61 -143 19 -47
43 -103 53 -125 45 -104 205 -574 225 -661 2 -10 13 -53 24 -94 53 -197 120
-546 136 -705 4 -33 8 -69 10 -80 1 -11 6 -65 10 -120 4 -55 9 -111 11 -125 5
-30 5 -481 0 -530 -2 -19 -7 -75 -11 -125 -3 -49 -8 -99 -10 -110 -2 -11 -7
-45 -10 -76 -3 -31 -7 -65 -9 -75 -2 -11 -7 -39 -10 -64 -24 -174 -91 -462
-157 -675 -39 -124 -134 -386 -164 -450 -7 -17 -19 -44 -25 -60 l-11 -30 27
30 c14 17 40 47 57 69 18 21 68 81 112 135 167 200 496 663 596 837 10 16 36
61 59 99 23 39 57 98 76 133 19 34 44 79 56 100 44 78 188 373 241 492 170
387 297 771 391 1185 25 112 31 139 41 210 4 22 8 47 10 55 2 8 6 29 9 45 8
53 18 120 21 135 1 8 6 42 10 75 4 32 8 67 10 76 2 9 6 52 10 95 4 43 8 90 11
104 22 135 22 847 0 980 -2 14 -7 63 -11 110 -3 47 -8 92 -10 100 -2 8 -6 42
-10 75 -17 169 -100 586 -160 805 -14 52 -32 118 -40 145 -16 60 -116 360
-143 430 -99 258 -114 295 -178 433 -19 41 -34 76 -34 78 0 3 -41 87 -91 187
-84 166 -115 227 -202 387 -16 30 -45 84 -65 120 -84 156 -349 638 -476 864
-36 65 -66 120 -66 121 0 2 -22 41 -48 87 -26 46 -58 103 -71 128 -12 25 -32
63 -45 85 -12 22 -46 85 -75 140 -30 55 -66 123 -81 150 -183 336 -503 986
-640 1300 -197 453 -332 880 -394 1250 -17 104 -36 228 -41 280 -4 33 -8 69
-10 80 -3 20 -13 137 -20 240 -26 345 -26 1198 0 1740 2 55 7 157 9 226 3 70
8 201 12 293 4 91 5 166 3 166 -2 -1 -40 -51 -84 -112z"/>
<path d="M390 13353 c0 -15 113 -321 173 -468 150 -368 325 -717 525 -1050 63
-103 239 -374 251 -385 3 -3 21 -27 40 -55 39 -57 240 -320 268 -350 10 -11
31 -36 47 -55 180 -219 497 -539 721 -726 38 -33 79 -67 90 -77 48 -45 371
-281 490 -359 409 -269 856 -489 1320 -651 117 -41 347 -113 385 -122 8 -1 40
-10 71 -19 31 -9 67 -19 80 -21 13 -3 71 -16 129 -30 112 -26 392 -80 475 -91
28 -3 52 -7 55 -9 3 -2 34 -6 70 -10 36 -4 73 -9 82 -10 9 -2 48 -7 85 -10 37
-4 79 -8 93 -10 14 -2 61 -7 105 -10 44 -3 105 -8 135 -10 132 -11 616 -27
1225 -40 588 -13 689 -15 865 -20 330 -9 775 -29 905 -40 33 -3 105 -7 160
-10 55 -3 120 -8 145 -10 25 -2 77 -7 115 -10 39 -3 97 -8 130 -11 33 -4 76
-8 96 -9 92 -8 225 -22 269 -30 14 -2 50 -7 80 -10 30 -4 69 -8 85 -11 17 -3
44 -7 60 -10 112 -18 271 -47 330 -60 39 -9 77 -17 85 -19 8 -2 44 -11 80 -20
36 -9 72 -18 80 -20 34 -7 311 -96 387 -124 105 -39 278 -109 368 -151 66 -30
455 -223 492 -245 10 -6 74 -41 143 -80 129 -72 298 -169 384 -221 129 -78
585 -358 616 -379 19 -13 136 -87 260 -166 124 -78 258 -164 299 -191 40 -27
76 -47 78 -44 5 4 -32 91 -93 224 -19 41 -34 76 -34 79 0 10 -213 427 -275
538 -92 164 -292 492 -325 533 -8 10 -19 25 -25 34 -56 85 -157 228 -212 298
-7 8 -49 62 -93 120 -263 337 -572 669 -850 910 -41 36 -77 67 -80 71 -3 3
-39 32 -80 64 -41 33 -77 62 -80 65 -3 3 -21 17 -40 30 -19 13 -37 27 -40 30
-28 33 -524 360 -547 360 -2 0 -17 8 -31 19 -41 28 -364 194 -472 241 -52 23
-117 52 -145 65 -69 31 -347 135 -480 180 -175 58 -561 165 -682 190 -10 2
-76 15 -148 30 -171 35 -165 34 -200 40 -16 2 -41 6 -55 9 -34 7 -196 34 -240
40 -19 3 -73 10 -120 16 -47 6 -96 13 -109 15 -14 2 -54 7 -90 11 -36 3 -73 7
-82 9 -9 2 -52 6 -95 10 -43 4 -90 8 -104 10 -14 2 -63 7 -110 10 -47 3 -105
8 -130 10 -60 6 -209 15 -334 20 -56 2 -153 7 -216 9 -63 3 -187 8 -275 11
-88 3 -221 8 -295 10 -74 3 -198 7 -275 10 -194 6 -508 19 -760 30 -55 3 -154
7 -220 10 -66 3 -151 7 -190 10 -82 5 -241 14 -375 20 -52 3 -122 7 -155 10
-57 4 -97 7 -290 20 -44 4 -98 8 -120 10 -22 2 -67 7 -100 10 -33 4 -73 8 -90
10 -16 2 -50 7 -75 10 -91 11 -329 47 -390 60 -34 7 -129 25 -160 31 -30 5
-107 24 -250 59 -58 15 -112 28 -120 30 -106 25 -483 153 -615 209 -832 355
-1407 795 -1976 1511 -30 39 -61 79 -67 90 -6 11 -12 15 -12 8z"/>
<path d="M2655 9660 c13 -48 117 -335 155 -430 21 -52 40 -102 43 -110 19 -52
168 -399 222 -515 341 -735 776 -1433 1266 -2030 292 -356 668 -742 994 -1021
44 -38 82 -71 85 -74 13 -15 268 -216 377 -298 203 -150 685 -472 709 -472 2
0 22 -11 43 -25 149 -93 491 -269 766 -392 144 -64 431 -183 455 -189 3 0 19
-6 35 -13 87 -36 599 -201 705 -227 8 -2 33 -8 55 -14 22 -6 47 -12 55 -14 8
-2 44 -12 80 -21 36 -9 76 -19 90 -21 14 -3 39 -9 55 -14 25 -7 255 -56 360
-75 98 -18 256 -46 295 -51 25 -3 54 -8 64 -10 11 -2 56 -8 100 -14 45 -6 92
-13 106 -15 14 -2 54 -7 90 -10 36 -4 72 -8 80 -10 8 -1 51 -6 95 -9 44 -4 98
-9 120 -11 22 -3 83 -7 135 -10 52 -3 115 -8 140 -10 64 -6 305 -14 825 -29
178 -6 503 -12 1010 -21 371 -6 796 -15 970 -20 391 -11 914 -32 1015 -40 30
-2 105 -7 165 -10 61 -3 139 -8 175 -10 36 -3 101 -7 145 -10 154 -10 419 -31
510 -40 22 -2 74 -7 115 -10 41 -3 82 -8 90 -10 8 -2 49 -7 90 -10 41 -4 84
-9 94 -11 11 -2 42 -6 70 -9 50 -5 127 -15 156 -20 15 -3 110 -16 140 -20 8
-1 33 -5 55 -9 22 -4 90 -16 150 -27 110 -20 345 -70 420 -90 22 -5 49 -12 60
-14 11 -2 54 -13 95 -25 41 -12 82 -23 90 -25 67 -15 385 -124 550 -188 382
-148 902 -403 1350 -661 30 -18 62 -35 70 -39 8 -4 24 -13 35 -20 11 -7 66
-39 123 -72 57 -33 119 -69 137 -80 19 -11 60 -35 92 -54 86 -51 622 -379 663
-406 19 -13 159 -101 310 -195 151 -95 300 -189 330 -209 31 -20 63 -40 72
-46 9 -5 71 -45 137 -87 67 -43 121 -75 121 -72 0 3 -43 103 -96 222 -249 561
-539 1094 -840 1546 -43 65 -83 126 -89 135 -36 57 -160 230 -304 421 -168
222 -375 473 -575 695 -82 91 -508 521 -581 585 -395 350 -707 581 -1171 867
-166 102 -542 300 -764 402 -368 169 -758 313 -1180 436 -173 50 -474 130
-530 140 -14 3 -40 9 -57 14 -18 5 -33 8 -33 6 0 -3 -11 0 -26 5 -14 6 -39 12
-57 15 -18 3 -77 15 -132 26 -55 12 -111 23 -125 25 -14 3 -59 11 -100 19 -67
13 -304 53 -355 60 -11 2 -56 8 -100 15 -44 6 -95 13 -112 16 -18 2 -48 6 -65
8 -143 19 -247 32 -343 41 -27 3 -63 7 -80 10 -16 2 -66 7 -110 11 -44 3 -96
7 -115 9 -70 7 -167 15 -240 20 -41 3 -111 7 -154 11 -182 12 -569 29 -911 39
-93 3 -224 7 -290 10 -66 2 -196 7 -290 10 -263 8 -514 17 -865 30 -63 2 -187
7 -275 10 -88 3 -200 8 -250 10 -180 9 -451 21 -635 29 -69 3 -152 8 -185 11
-33 3 -112 7 -175 10 -63 3 -144 7 -180 10 -36 3 -99 7 -140 10 -41 2 -109 7
-150 10 -41 3 -109 7 -150 10 -41 3 -97 7 -125 10 -27 3 -77 7 -110 10 -33 3
-96 10 -140 15 -44 5 -101 12 -127 15 -26 3 -79 9 -117 15 -38 5 -93 12 -122
16 -30 3 -57 8 -60 10 -3 1 -28 6 -55 9 -49 6 -191 31 -284 50 -14 2 -39 7
-57 10 -32 5 -241 52 -363 81 -36 9 -130 34 -210 56 -80 23 -165 46 -190 53
-87 24 -387 128 -525 182 -330 128 -704 308 -980 473 -91 54 -421 268 -453
294 -9 8 -64 50 -122 93 -360 268 -776 664 -1065 1014 -75 91 -151 187 -210
264 -37 50 -64 79 -60 65z"/>
</g>
</svg>
